M48
; DRILL file KiCad 10.0.3 date 2026-06-24T18:28:53
; FORMAT={-:-/ absolute / metric / decimal}
; #@! TF.CreationDate,2026-06-24T18:28:53+01:00
; #@! TF.GenerationSoftware,Kicad,Pcbnew,10.0.3
; #@! TF.FileFunction,Plated,1,2,PTH
FMAT,2
METRIC
; #@! TA.AperFunction,Plated,PTH,ViaDrill
T1C0.300
; #@! TA.AperFunction,Plated,PTH,ComponentDrill
T2C0.700
; #@! TA.AperFunction,Plated,PTH,ComponentDrill
T3C0.750
; #@! TA.AperFunction,Plated,PTH,ComponentDrill
T4C0.760
; #@! TA.AperFunction,Plated,PTH,ComponentDrill
T5C0.800
; #@! TA.AperFunction,Plated,PTH,ComponentDrill
T6C0.864
; #@! TA.AperFunction,Plated,PTH,ComponentDrill
T7C0.900
; #@! TA.AperFunction,Plated,PTH,ComponentDrill
T8C1.000
; #@! TA.AperFunction,Plated,PTH,ComponentDrill
T9C1.016
; #@! TA.AperFunction,Plated,PTH,ComponentDrill
T10C1.100
; #@! TA.AperFunction,Plated,PTH,ComponentDrill
T11C1.400
; #@! TA.AperFunction,Plated,PTH,ComponentDrill
T12C1.700
; #@! TA.AperFunction,Plated,PTH,ComponentDrill
T13C2.300
; #@! TA.AperFunction,Plated,PTH,ComponentDrill
T14C3.200
%
G90
G05
T1
X15.11Y-40.39
X19.9Y-60.77
X30.657Y-59.198
X39.81Y-38.07
X46.22Y-83.982
X46.32Y-60.79
X46.47Y-73.97
X47.61Y-53.91
X48.47Y-116.66
X48.83Y-96.95
X49.26Y-73.91
X49.59Y-66.05
X50.745Y-68.535
X51.181Y-82.255
X51.258Y-116.511
X51.27Y-141.37
X51.381Y-89.169
X51.5Y-75.56
X51.95Y-47.88
X52.85Y-54.33
X53.393Y-87.79
X53.64Y-32.58
X53.74Y-59.51
X53.89Y-116.58
X54.05Y-127.66
X55.08Y-76.01
X55.09Y-138.67
X55.25Y-35.54
X55.81Y-81.29
X57.34Y-75.73
X57.36Y-54.46
X57.54Y-48.94
X57.89Y-68.21
X58.04Y-138.75
X58.36Y-41.53
X58.51Y-128.06
X58.77Y-59.61
X58.86Y-53.96
X59.8Y-36.04
X59.994Y-85.424
X60.16Y-49.61
X60.26Y-108.91
X60.76Y-87.7
X60.976Y-48.116
X61.18Y-60.45
X61.28Y-64.91
X62.28Y-49.22
X62.53Y-41.36
X62.96Y-54.48
X62.98Y-35.78
X63.6Y-60.62
X63.89Y-86.3
X63.941Y-110.885
X64.33Y-34.51
X64.79Y-69.26
X64.96Y-46.09
X65.117Y-59.451
X66.27Y-60.6
X66.3Y-36.1
X66.46Y-54.54
X66.58Y-67.75
X66.593Y-109.1
X66.993Y-49.176
X67.04Y-41.04
X67.36Y-46.32
X68.07Y-59.2
X68.43Y-65.79
X69.26Y-35.71
X69.26Y-69.82
X69.57Y-42.15
X70.56Y-54.59
X71.325Y-104.483
X71.35Y-59.03
X71.622Y-116.76
X72.65Y-65.423
X73.15Y-95.51
X73.67Y-59.04
X74.39Y-66.75
X75.042Y-101.653
X75.35Y-84.77
X76.617Y-60.613
X77.064Y-115.134
X77.52Y-54.39
X78.14Y-59.17
X78.931Y-102.766
X79.98Y-68.53
X81.454Y-122.07
X81.51Y-59.11
X81.79Y-52.0
X83.91Y-34.38
X84.16Y-54.36
X84.74Y-85.04
X85.04Y-79.35
X85.71Y-106.85
X86.356Y-94.468
X86.84Y-122.82
X87.09Y-65.57
X87.271Y-61.604
X87.596Y-113.401
X88.744Y-88.614
X89.34Y-79.7
X89.765Y-46.5
X89.91Y-39.79
X89.98Y-108.45
X90.309Y-73.885
X90.97Y-112.75
X91.05Y-106.21
X91.06Y-73.175
X91.362Y-98.593
X91.62Y-56.73
X91.71Y-67.57
X91.75Y-59.2
X92.244Y-93.613
X93.672Y-108.706
X94.026Y-112.595
X95.52Y-106.21
X95.778Y-88.614
X95.97Y-43.64
X96.545Y-57.061
X97.5Y-131.46
X97.951Y-134.349
X98.464Y-79.493
X99.12Y-33.44
X99.28Y-44.03
X99.324Y-117.342
X99.63Y-85.04
X99.696Y-119.038
X99.71Y-93.89
X100.47Y-75.72
X100.62Y-121.6
X100.8Y-112.27
X101.006Y-80.797
X101.35Y-69.9
X102.08Y-95.67
X104.31Y-75.07
X104.35Y-71.83
X104.38Y-61.4
X104.42Y-66.42
X104.511Y-117.34
X104.68Y-54.08
X105.49Y-136.27
X105.9Y-101.99
X107.175Y-140.423
X108.12Y-136.19
X108.59Y-66.33
X108.97Y-46.21
X108.97Y-48.83
X109.448Y-71.781
X111.427Y-133.172
X111.951Y-115.684
X111.96Y-75.59
X112.15Y-96.68
X112.509Y-110.124
X112.52Y-86.51
X112.78Y-99.2
X113.27Y-124.93
X113.502Y-122.591
X113.99Y-56.59
X114.395Y-115.55
X115.22Y-126.15
X115.31Y-120.72
X116.02Y-98.06
X116.19Y-122.89
X116.34Y-99.82
X116.39Y-40.39
X116.62Y-124.71
X120.58Y-86.91
X120.91Y-119.08
X121.05Y-124.25
X122.89Y-80.65
X123.07Y-121.45
X123.65Y-46.21
X124.17Y-66.26
X124.49Y-74.47
X124.73Y-70.67
X126.19Y-118.59
X126.24Y-110.95
X126.266Y-56.449
X126.3Y-108.77
X126.35Y-113.62
X126.35Y-116.14
X127.0Y-64.39
X127.54Y-124.11
X128.51Y-121.49
X128.72Y-136.51
X129.24Y-59.37
X129.45Y-54.06
X129.45Y-56.75
X129.45Y-126.44
X129.83Y-86.75
X130.131Y-40.188
X130.63Y-61.55
X130.86Y-101.17
X131.21Y-80.82
X131.928Y-64.324
X132.457Y-73.324
X132.734Y-41.482
X135.718Y-109.626
X135.742Y-59.488
X135.885Y-53.288
X136.209Y-75.426
X137.8Y-92.252
X138.076Y-49.765
X138.89Y-70.53
X139.47Y-61.17
X139.5Y-57.38
X139.66Y-41.63
X140.59Y-86.44
X140.809Y-32.762
X141.26Y-112.22
X141.35Y-133.01
X141.53Y-117.51
X141.67Y-126.34
X141.69Y-120.51
X141.77Y-122.85
X141.894Y-50.582
X142.11Y-36.3
X142.238Y-81.652
X142.403Y-33.475
X142.68Y-74.33
X143.15Y-68.2
X143.46Y-57.43
X143.82Y-63.01
X143.82Y-93.154
X144.04Y-51.48
X145.29Y-57.31
X145.724Y-101.514
X146.03Y-30.9
X146.04Y-111.6
X146.404Y-56.361
X146.524Y-55.37
X146.631Y-54.443
X147.73Y-67.03
X147.82Y-53.834
X148.05Y-125.01
X148.212Y-93.783
X148.74Y-61.44
X148.86Y-111.37
X149.433Y-68.398
X150.19Y-70.82
X150.39Y-47.99
X150.91Y-90.98
X151.36Y-36.03
X153.87Y-70.49
X154.058Y-77.039
X154.35Y-37.1
X154.896Y-78.779
X155.47Y-41.5
X155.571Y-70.822
X156.978Y-94.839
X157.39Y-58.26
X157.781Y-92.474
X158.3Y-37.63
X158.466Y-127.882
X158.62Y-82.94
X159.87Y-41.68
X161.005Y-73.621
X161.63Y-59.49
X161.885Y-113.103
X162.097Y-47.039
X162.38Y-34.42
X162.92Y-90.14
X163.691Y-40.188
X163.716Y-41.989
X163.8Y-133.97
X164.76Y-80.59
X165.21Y-37.3
X165.54Y-55.36
X166.0Y-99.294
X166.042Y-145.348
X166.208Y-89.813
X166.721Y-94.637
X167.27Y-73.17
X167.814Y-97.045
X168.365Y-43.89
X168.707Y-39.39
X169.19Y-32.57
X169.306Y-38.742
X169.46Y-108.84
X169.68Y-45.29
X170.76Y-31.075
X171.54Y-124.87
X171.57Y-58.37
X171.91Y-36.5
X172.087Y-39.903
X173.05Y-38.29
X173.564Y-50.007
X173.718Y-31.578
X173.744Y-30.308
X174.526Y-33.084
X175.08Y-31.105
X175.13Y-108.37
X175.15Y-45.8
X175.716Y-32.71
X175.76Y-59.77
X176.03Y-56.31
X176.17Y-39.84
X176.23Y-44.41
X176.538Y-33.016
X177.576Y-30.306
X177.79Y-34.481
X178.991Y-41.3
X179.063Y-62.063
X179.22Y-67.19
X179.494Y-45.636
X180.925Y-129.885
X181.09Y-39.65
X181.094Y-95.884
X182.39Y-45.7
X182.96Y-57.09
X183.07Y-78.25
X184.284Y-48.865
X185.19Y-68.398
X185.64Y-78.3
X186.75Y-40.44
X186.77Y-33.28
X187.556Y-49.628
X188.2Y-78.58
X188.2Y-102.16
X188.405Y-58.909
X188.79Y-31.72
X189.543Y-34.291
X189.88Y-94.345
X190.94Y-67.98
X190.974Y-33.637
X191.068Y-59.702
X191.11Y-79.03
X191.309Y-71.43
X193.01Y-96.47
X193.41Y-110.35
X193.41Y-117.23
X193.5Y-94.26
X194.093Y-61.0
X194.29Y-32.99
X194.56Y-37.94
X194.96Y-67.58
X195.5Y-101.46
X195.62Y-33.03
X195.62Y-35.96
X195.668Y-95.882
X196.82Y-81.37
X196.95Y-31.98
X196.98Y-36.52
X197.27Y-115.128
X197.915Y-52.97
X197.96Y-89.772
X198.15Y-40.48
X198.98Y-101.48
X199.161Y-51.38
X201.01Y-81.33
X201.216Y-43.162
X201.679Y-61.221
X201.82Y-64.604
X202.72Y-101.43
X203.04Y-89.75
X203.446Y-65.58
X204.923Y-62.611
X205.11Y-81.35
X205.66Y-37.6
X206.29Y-90.18
X206.394Y-30.328
X207.31Y-101.54
X209.25Y-54.86
X209.75Y-38.11
X211.461Y-31.26
X212.06Y-101.54
X261.2Y-63.89
T2
X30.21Y-35.97
X30.21Y-43.59
X32.5Y-35.95
X32.5Y-43.57
X34.79Y-36.06
X34.79Y-43.68
X37.19Y-36.11
X37.19Y-43.73
X37.998Y-49.981
X37.998Y-47.468
X37.998Y-52.497
X41.755Y-124.041
X41.755Y-131.661
X41.806Y-135.522
X41.806Y-143.142
X45.618Y-49.981
X45.618Y-47.468
X45.618Y-52.497
X45.96Y-36.11
X45.96Y-43.73
X56.44Y-90.0
X56.44Y-97.62
X58.991Y-90.0
X58.991Y-97.62
X61.531Y-90.0
X61.531Y-97.62
X64.08Y-90.0
X64.08Y-97.62
X66.639Y-90.0
X66.639Y-97.62
X75.43Y-118.76
X75.43Y-126.38
X76.49Y-41.849
X76.49Y-49.469
X79.04Y-41.849
X79.04Y-49.469
X79.835Y-132.32
X79.85Y-145.702
X81.6Y-41.849
X81.6Y-49.469
X84.079Y-41.849
X84.079Y-49.469
X86.55Y-41.849
X86.55Y-49.469
X87.455Y-132.32
X87.47Y-145.702
X89.101Y-41.869
X89.101Y-49.489
X93.3Y-49.1
X93.35Y-36.02
X93.35Y-38.491
X93.381Y-51.6
X93.401Y-56.599
X93.472Y-54.08
X94.869Y-64.72
X94.869Y-72.34
X97.29Y-64.75
X97.29Y-72.37
X99.822Y-64.77
X99.822Y-72.39
X100.57Y-92.35
X100.92Y-49.1
X100.97Y-36.02
X100.97Y-38.491
X101.001Y-51.6
X101.021Y-56.599
X101.092Y-54.08
X108.19Y-92.35
X139.26Y-109.34
X139.38Y-96.266
X139.38Y-98.806
X139.38Y-101.346
X139.38Y-103.886
X139.38Y-106.426
X146.88Y-109.34
X147.0Y-96.266
X147.0Y-98.806
X147.0Y-101.346
X147.0Y-103.886
X147.0Y-106.426
X151.0Y-96.27
X151.0Y-98.54
X151.0Y-101.08
X151.0Y-103.614
X151.0Y-106.144
X151.0Y-108.7
X151.0Y-111.24
X151.0Y-113.78
X151.0Y-116.32
X151.0Y-118.86
X151.0Y-121.4
X151.0Y-123.94
X151.0Y-126.61
X151.0Y-129.154
X151.0Y-131.694
X151.0Y-134.23
X153.51Y-52.0
X153.51Y-59.62
X157.36Y-72.46
X157.39Y-66.82
X157.39Y-69.73
X158.36Y-44.94
X158.62Y-96.27
X158.62Y-98.54
X158.62Y-101.08
X158.62Y-103.614
X158.62Y-106.144
X158.62Y-108.7
X158.62Y-111.24
X158.62Y-113.78
X158.62Y-116.32
X158.62Y-118.86
X158.62Y-121.4
X158.62Y-123.94
X158.62Y-126.61
X158.62Y-129.154
X158.62Y-131.694
X158.62Y-134.23
X164.98Y-72.46
X165.01Y-66.82
X165.01Y-69.73
X165.98Y-44.94
X167.691Y-146.863
X167.716Y-139.217
X167.716Y-141.757
X167.716Y-144.297
X175.311Y-146.863
X175.336Y-139.217
X175.336Y-141.757
X175.336Y-144.297
X185.8Y-44.49
X193.42Y-44.49
X222.93Y-64.9
X222.93Y-72.52
T3
X96.012Y-76.708
X97.282Y-75.438
X98.552Y-76.708
X163.932Y-141.402
X163.932Y-142.672
X163.932Y-143.942
X196.521Y-91.884
X196.521Y-93.154
X196.521Y-94.424
X196.552Y-85.352
X196.552Y-86.622
X196.552Y-87.892
X201.388Y-91.818
X201.388Y-93.088
X201.388Y-94.358
X201.429Y-85.265
X201.429Y-86.535
X201.429Y-87.805
X206.225Y-91.91
X206.225Y-93.18
X206.225Y-94.45
X206.265Y-85.387
X206.265Y-86.657
X206.265Y-87.927
X211.01Y-91.92
X211.01Y-93.19
X211.01Y-94.46
X211.025Y-85.346
X211.025Y-86.617
X211.025Y-87.886
T4
X216.34Y-34.0
X216.34Y-36.54
X216.34Y-39.08
X216.34Y-44.16
X216.34Y-46.7
T5
X25.781Y-47.752
X25.781Y-53.619
X25.806Y-50.673
X33.401Y-47.752
X33.401Y-53.619
X33.426Y-50.673
X40.9Y-56.93
X40.9Y-72.17
X42.41Y-112.59
X42.41Y-120.21
X43.44Y-56.93
X43.44Y-72.17
X44.95Y-112.59
X44.95Y-120.21
X44.95Y-135.43
X44.95Y-143.05
X44.98Y-124.02
X44.98Y-131.64
X45.98Y-56.93
X45.98Y-72.17
X47.49Y-112.59
X47.49Y-120.21
X47.49Y-135.43
X47.49Y-143.05
X47.52Y-124.02
X47.52Y-131.64
X48.52Y-56.93
X48.52Y-72.17
X48.6Y-62.69
X48.6Y-77.93
X49.79Y-44.2
X49.79Y-51.82
X49.824Y-41.148
X50.03Y-112.59
X50.03Y-120.21
X50.03Y-135.43
X50.03Y-143.05
X50.06Y-124.02
X50.06Y-131.64
X50.292Y-38.354
X51.06Y-56.93
X51.06Y-72.17
X51.14Y-62.69
X51.14Y-77.93
X52.324Y-41.148
X52.33Y-44.2
X52.33Y-51.82
X52.57Y-112.59
X52.57Y-120.21
X52.57Y-135.43
X52.57Y-143.05
X52.6Y-124.02
X52.6Y-131.64
X52.832Y-38.354
X53.6Y-56.93
X53.6Y-72.17
X53.68Y-62.69
X53.68Y-77.93
X54.87Y-44.2
X54.87Y-51.82
X55.11Y-112.59
X55.11Y-120.21
X55.11Y-135.43
X55.11Y-143.05
X55.14Y-124.02
X55.14Y-131.64
X55.372Y-38.354
X56.14Y-56.93
X56.14Y-72.17
X56.22Y-62.69
X56.22Y-77.93
X57.41Y-44.2
X57.41Y-51.82
X57.65Y-112.59
X57.65Y-120.21
X57.65Y-135.43
X57.65Y-143.05
X57.68Y-124.02
X57.68Y-131.64
X57.912Y-38.354
X58.68Y-56.93
X58.68Y-72.17
X58.76Y-62.69
X58.76Y-77.93
X59.95Y-44.2
X59.95Y-51.82
X60.19Y-112.59
X60.19Y-120.21
X60.19Y-135.43
X60.19Y-143.05
X60.22Y-124.02
X60.22Y-131.64
X60.452Y-38.354
X61.22Y-56.93
X61.22Y-72.17
X61.3Y-62.69
X61.3Y-77.93
X62.49Y-44.2
X62.49Y-51.82
X62.992Y-38.354
X63.305Y-140.545
X63.305Y-143.045
X63.495Y-129.14
X63.495Y-131.64
X63.505Y-117.741
X63.505Y-120.241
X63.76Y-56.93
X63.76Y-72.17
X63.84Y-62.69
X63.84Y-77.93
X65.03Y-44.2
X65.03Y-51.82
X65.532Y-38.354
X66.3Y-56.93
X66.3Y-72.17
X66.38Y-62.69
X66.38Y-77.93
X67.57Y-44.2
X67.57Y-51.82
X68.072Y-38.354
X68.84Y-56.93
X68.84Y-72.17
X68.92Y-62.69
X68.92Y-77.93
X70.11Y-44.2
X70.11Y-51.82
X70.612Y-38.354
X71.38Y-56.93
X71.38Y-72.17
X71.46Y-62.69
X71.46Y-77.93
X72.65Y-44.2
X72.65Y-51.82
X73.526Y-137.095
X73.526Y-141.975
X73.92Y-56.93
X73.92Y-72.17
X74.0Y-62.69
X74.0Y-77.93
X75.37Y-107.85
X75.37Y-110.35
X76.46Y-56.93
X76.46Y-72.17
X76.54Y-62.69
X76.54Y-77.93
X77.65Y-138.082
X77.65Y-140.582
X79.0Y-56.93
X79.0Y-72.17
X79.08Y-62.69
X79.08Y-77.93
X80.24Y-99.56
X80.24Y-102.1
X80.24Y-104.64
X80.24Y-107.18
X80.24Y-109.72
X80.24Y-112.26
X80.24Y-114.8
X80.24Y-117.34
X80.24Y-119.88
X80.24Y-122.42
X80.24Y-124.96
X80.51Y-135.28
X80.51Y-142.9
X80.609Y-36.38
X80.609Y-38.88
X81.54Y-56.93
X81.54Y-72.17
X81.62Y-62.69
X81.62Y-77.93
X82.78Y-97.02
X82.78Y-99.56
X82.78Y-102.1
X82.78Y-104.64
X82.78Y-107.18
X82.78Y-109.72
X82.78Y-112.26
X82.78Y-114.8
X82.78Y-117.34
X82.78Y-119.88
X82.78Y-122.42
X82.78Y-124.96
X82.78Y-127.5
X83.05Y-135.28
X83.05Y-142.9
X84.08Y-56.93
X84.08Y-72.17
X85.32Y-97.02
X85.32Y-99.56
X85.32Y-124.96
X85.32Y-127.5
X85.59Y-135.28
X85.59Y-142.9
X86.614Y-75.184
X86.62Y-56.93
X86.62Y-72.17
X87.061Y-36.42
X87.061Y-38.92
X87.86Y-97.02
X87.86Y-99.56
X87.86Y-124.96
X87.86Y-127.5
X88.13Y-135.28
X88.13Y-142.9
X89.114Y-75.184
X89.16Y-56.93
X89.16Y-72.17
X90.4Y-97.02
X90.4Y-99.56
X90.4Y-124.96
X90.4Y-127.5
X90.67Y-135.28
X90.67Y-142.9
X92.93Y-92.35
X92.94Y-97.02
X92.94Y-99.56
X92.94Y-124.96
X92.94Y-127.5
X93.21Y-135.28
X93.21Y-142.9
X93.301Y-46.5
X93.37Y-43.75
X93.4Y-41.001
X95.43Y-92.35
X95.48Y-97.02
X95.48Y-99.56
X95.48Y-124.96
X95.48Y-127.5
X95.75Y-135.28
X95.75Y-142.9
X95.801Y-46.5
X95.9Y-41.001
X95.98Y-59.6
X95.98Y-62.15
X98.02Y-97.02
X98.02Y-99.56
X98.02Y-124.96
X98.02Y-127.5
X98.4Y-41.0
X98.48Y-59.6
X98.48Y-62.15
X98.501Y-46.5
X98.566Y-139.232
X98.566Y-141.732
X99.13Y-132.1
X100.56Y-97.02
X100.56Y-99.56
X100.56Y-124.96
X100.56Y-127.5
X100.9Y-41.0
X100.99Y-43.75
X101.001Y-46.5
X101.63Y-132.1
X103.1Y-97.02
X103.1Y-99.56
X103.1Y-124.96
X103.1Y-127.5
X105.64Y-97.02
X105.64Y-99.56
X105.64Y-124.96
X105.64Y-127.5
X108.18Y-97.02
X108.18Y-99.56
X108.18Y-102.1
X108.18Y-104.64
X108.18Y-107.18
X108.18Y-109.72
X108.18Y-112.26
X108.18Y-114.8
X108.18Y-117.34
X108.18Y-119.88
X108.18Y-122.42
X108.18Y-124.96
X108.18Y-127.5
X110.72Y-99.56
X110.72Y-102.1
X110.72Y-104.64
X110.72Y-107.18
X110.72Y-109.72
X110.72Y-112.26
X110.72Y-114.8
X110.72Y-117.34
X110.72Y-119.88
X110.72Y-122.42
X110.72Y-124.96
X115.28Y-107.13
X115.28Y-109.63
X119.2Y-43.94
X119.2Y-46.48
X119.2Y-49.02
X119.2Y-51.56
X119.2Y-54.1
X119.2Y-56.64
X119.2Y-59.18
X119.2Y-61.72
X119.2Y-64.26
X119.2Y-66.8
X119.2Y-69.34
X119.2Y-71.88
X119.2Y-74.42
X119.2Y-76.96
X119.2Y-95.98
X119.2Y-98.52
X119.2Y-101.06
X119.2Y-103.6
X119.2Y-106.14
X119.2Y-108.68
X119.2Y-111.22
X119.2Y-113.76
X119.2Y-116.3
X119.2Y-118.84
X119.2Y-121.38
X119.2Y-123.92
X119.2Y-126.46
X119.2Y-129.0
X123.484Y-133.604
X125.69Y-81.45
X125.984Y-133.604
X128.19Y-81.45
X134.44Y-43.94
X134.44Y-46.48
X134.44Y-49.02
X134.44Y-51.56
X134.44Y-54.1
X134.44Y-56.64
X134.44Y-59.18
X134.44Y-61.72
X134.44Y-64.26
X134.44Y-66.8
X134.44Y-69.34
X134.44Y-71.88
X134.44Y-74.42
X134.44Y-76.96
X134.44Y-95.98
X134.44Y-98.52
X134.44Y-101.06
X134.44Y-103.6
X134.44Y-106.14
X134.44Y-108.68
X134.44Y-111.22
X134.44Y-113.76
X134.44Y-116.3
X134.44Y-118.84
X134.44Y-121.38
X134.44Y-123.92
X134.44Y-126.46
X134.44Y-129.0
X157.91Y-47.99
X157.91Y-63.23
X160.45Y-47.99
X160.45Y-63.23
X162.99Y-47.99
X162.99Y-63.23
X163.52Y-95.98
X163.52Y-98.52
X163.52Y-101.06
X163.52Y-103.6
X163.52Y-106.14
X163.52Y-108.68
X163.52Y-111.22
X163.52Y-113.76
X163.52Y-116.3
X163.52Y-118.84
X163.52Y-121.38
X163.52Y-123.92
X163.52Y-126.46
X163.52Y-129.0
X165.53Y-47.99
X165.53Y-63.23
X168.07Y-47.99
X168.07Y-63.23
X169.94Y-133.07
X170.61Y-47.99
X170.61Y-63.23
X172.44Y-133.07
X173.15Y-47.99
X173.15Y-63.23
X174.78Y-67.21
X174.78Y-69.71
X175.69Y-47.99
X175.69Y-63.23
X178.23Y-44.434
X178.23Y-47.99
X178.23Y-63.23
X178.76Y-95.98
X178.76Y-98.52
X178.76Y-101.06
X178.76Y-103.6
X178.76Y-106.14
X178.76Y-108.68
X178.76Y-111.22
X178.76Y-113.76
X178.76Y-116.3
X178.76Y-118.84
X178.76Y-121.38
X178.76Y-123.92
X178.76Y-126.46
X178.76Y-129.0
X180.73Y-44.434
X180.77Y-47.99
X180.77Y-63.23
X183.31Y-47.99
X183.31Y-63.23
X183.43Y-96.52
X183.43Y-99.06
X183.43Y-101.6
X183.43Y-104.14
X183.43Y-106.68
X183.43Y-109.22
X183.43Y-111.76
X183.43Y-114.3
X183.43Y-116.84
X185.85Y-47.99
X185.85Y-63.23
X188.39Y-47.99
X188.39Y-63.23
X190.93Y-47.99
X190.93Y-63.23
X193.32Y-98.42
X193.47Y-47.99
X193.47Y-63.23
X195.86Y-98.42
X196.01Y-47.99
X196.01Y-63.23
X198.4Y-98.42
X198.55Y-47.99
X198.55Y-63.23
X200.94Y-98.42
X201.09Y-47.99
X201.09Y-63.23
X203.48Y-98.42
X203.63Y-47.99
X203.63Y-63.23
X206.02Y-98.42
X206.17Y-47.99
X206.17Y-63.23
X208.56Y-98.42
X211.1Y-98.42
X213.64Y-98.42
X223.022Y-76.451
X225.522Y-76.451
X230.164Y-76.454
X232.664Y-76.454
T6
X56.438Y-103.49
X58.978Y-103.49
X61.518Y-103.49
X64.058Y-103.49
X66.598Y-103.49
T7
X222.96Y-59.3
X222.96Y-61.84
T8
X42.61Y-37.29
X42.61Y-39.83
X55.51Y-32.57
X56.895Y-29.73
X58.28Y-32.57
X59.665Y-29.73
X61.05Y-32.57
X62.435Y-29.73
X63.82Y-32.57
X65.205Y-29.73
X66.59Y-32.57
X105.156Y-142.748
X105.156Y-145.288
X107.696Y-142.748
X107.696Y-145.288
X110.236Y-142.748
X110.236Y-145.288
X112.776Y-142.748
X112.776Y-145.288
X115.316Y-142.748
X115.316Y-145.288
X141.88Y-44.555
X141.88Y-47.095
X180.111Y-139.217
X180.111Y-141.757
X183.43Y-122.31
X183.43Y-124.85
X183.43Y-127.39
X224.3Y-42.185
X224.3Y-44.725
X225.988Y-54.818
X229.58Y-51.226
X229.58Y-58.41
X229.92Y-42.485
X229.92Y-45.025
X233.172Y-54.818
T9
X195.737Y-104.17
X198.278Y-104.17
X200.817Y-104.17
X203.357Y-104.17
X205.897Y-104.17
X208.438Y-104.17
X210.977Y-104.17
X213.517Y-104.17
T10
X30.62Y-29.43
X30.62Y-31.93
X32.52Y-31.93
X33.22Y-29.43
X34.52Y-31.93
X35.22Y-29.43
X36.52Y-31.93
X38.42Y-29.43
X38.42Y-31.93
X224.79Y-84.58
X227.33Y-84.58
X229.87Y-84.58
T11
X210.249Y-121.406
X220.341Y-121.376
T12
X78.6Y-30.4
X81.1Y-30.4
X83.6Y-25.4
X86.1Y-30.4
X88.6Y-30.4
X91.801Y-30.401
X94.301Y-30.401
X96.801Y-25.401
X99.301Y-30.401
X101.801Y-30.401
T13
X27.27Y-26.43
X34.52Y-25.63
X41.77Y-26.43
T14
X48.55Y-31.15
X73.55Y-31.15
T8
G00X224.4Y-31.8
M15
G01X224.4Y-33.8
M16
G05
G00X230.1Y-29.8
M15
G01X228.1Y-29.8
M16
G05
G00X230.1Y-35.8
M15
G01X228.1Y-35.8
M16
G05
M30
